HIERARCHY
ROOT Hips
{
	OFFSET -21.947001 39.810204 44.525997
	CHANNELS 6 Xposition Yposition Zposition Zrotation Xrotation Yrotation
	JOINT Chest
	{
		OFFSET -0.201599 0.334099 6.453201
		CHANNELS 6 Xposition Yposition Zposition Zrotation Xrotation Yrotation
		JOINT Chest2
		{
			OFFSET 0.000000 0.000000 3.568001
			CHANNELS 6 Xposition Yposition Zposition Zrotation Xrotation Yrotation
			JOINT Neck
			{
				OFFSET 0.000000 0.000000 8.296402
				CHANNELS 6 Xposition Yposition Zposition Zrotation Xrotation Yrotation
				JOINT Head
				{
					OFFSET 0.000000 0.000000 2.173901
					CHANNELS 6 Xposition Yposition Zposition Zrotation Xrotation Yrotation
					End Site
					{
						OFFSET 0.000000 0.000000 7.891998
					}
				}
			}
			JOINT LeftCollar
			{
				OFFSET 1.927601 0.221401 6.049000
				CHANNELS 6 Xposition Yposition Zposition Zrotation Xrotation Yrotation
				JOINT LeftShoulder
				{
					OFFSET 4.959700 0.000000 0.000000
					CHANNELS 6 Xposition Yposition Zposition Zrotation Xrotation Yrotation
					JOINT LeftElbow
					{
						OFFSET 0.000000 0.000000 -8.654202
						CHANNELS 6 Xposition Yposition Zposition Zrotation Xrotation Yrotation
						JOINT LeftWrist
						{
							OFFSET 0.000000 0.000000 -13.864101
							CHANNELS 6 Xposition Yposition Zposition Zrotation Xrotation Yrotation
							End Site
							{
								OFFSET 0.000000 0.000000 -2.173901
							}
						}
					}
				}
			}
			JOINT RightCollar
			{
				OFFSET -3.155701 -0.764999 6.687801
				CHANNELS 6 Xposition Yposition Zposition Zrotation Xrotation Yrotation
				JOINT RightShoulder
				{
					OFFSET -3.592899 0.000000 0.000000
					CHANNELS 6 Xposition Yposition Zposition Zrotation Xrotation Yrotation
					JOINT RightElbow
					{
						OFFSET 0.000000 0.000000 -10.352398
						CHANNELS 6 Xposition Yposition Zposition Zrotation Xrotation Yrotation
						JOINT RightWrist
						{
							OFFSET 0.000000 0.000000 -12.750301
							CHANNELS 6 Xposition Yposition Zposition Zrotation Xrotation Yrotation
							End Site
							{
								OFFSET 0.000000 0.000000 -2.173901
							}
						}
					}
				}
			}
		}
	}
	JOINT LeftHip
	{
		OFFSET 2.460600 -0.518101 -2.735500
		CHANNELS 6 Xposition Yposition Zposition Zrotation Xrotation Yrotation
		JOINT LeftKnee
		{
			OFFSET 0.000000 -0.000004 -17.005899
			CHANNELS 6 Xposition Yposition Zposition Zrotation Xrotation Yrotation
			JOINT LeftAnkle
			{
				OFFSET 0.000000 0.000000 -19.194401
				CHANNELS 6 Xposition Yposition Zposition Zrotation Xrotation Yrotation
				End Site
				{
					OFFSET 0.000000 -8.134600 0.000000
				}
			}
		}
	}
	JOINT RightHip
	{
		OFFSET -3.115499 -0.679600 -2.320301
		CHANNELS 6 Xposition Yposition Zposition Zrotation Xrotation Yrotation
		JOINT RightKnee
		{
			OFFSET 0.000000 -0.000004 -17.680401
			CHANNELS 6 Xposition Yposition Zposition Zrotation Xrotation Yrotation
			JOINT RightAnkle
			{
				OFFSET 0.000000 0.000000 -16.993797
				CHANNELS 6 Xposition Yposition Zposition Zrotation Xrotation Yrotation
				End Site
				{
					OFFSET 0.000000 -8.842300 0.000000
				}
			}
		}
	}
}
MOTION
Frames: 6
Frame Time: 0.041667
-31.013302 8.555702 16.338291 2264.042255 19.375804 -22.954444 -0.201601 0.334101 6.453202 22.931564 8.173902 5.682239 0.000001 0.000004 3.567996 -3.312603 -8.928116 -1.536213 -0.000006 -0.000004 8.296391 -13.336524 -28.340944 19.693317 0.000000 -0.000001 2.173906 -0.936285 -5.963582 -11.841815 1.927598 0.221404 6.048995 11.591803 -12.375960 -12.290585 4.959704 -0.000001 0.000004 205.795253 146.454118 83.222167 0.000000 0.000000 -8.654186 -27.596257 12.166147 1.314553 -0.000003 0.000003 -13.864099 2355.277190 -172.192498 220.449328 -3.155707 -0.764997 6.687796 47.568859 13.932701 0.325174 -3.592901 0.000001 0.000001 29.099594 36.325548 -16.486953 0.000002 -0.000006 -10.352400 -120.227845 -126.367447 -130.703729 0.000000 0.000004 -12.750299 -24.501164 -4.980416 -42.433486 2.460600 -0.518103 -2.735498 101.782919 -34.632488 84.964159 -0.000002 0.000002 -17.005898 -309.649112 140.131685 -101.999149 -0.000005 0.000003 -19.194403 371.843285 9.661831 40.877811 -3.115501 -0.679602 -2.320294 -118.871697 -25.386691 -101.721406 0.000000 -0.000008 -17.680401 0.827051 207.345145 -319.958982 0.000001 0.000006 -16.993792 362.121603 46.997080 -158.494512
-31.008099 8.528807 16.347694 2264.097334 19.321915 -22.981403 -0.201601 0.334098 6.453200 22.833418 8.209256 5.782341 0.000003 0.000001 3.567995 -3.242087 -8.968879 -1.528422 -0.000003 -0.000010 8.296395 -13.379222 -28.189476 19.681125 0.000001 -0.000005 2.173900 -1.009188 -5.795179 -11.660053 1.927604 0.221397 6.048998 11.402574 -12.196969 -12.112205 4.959703 0.000000 0.000007 205.874087 146.621813 82.773642 -0.000001 0.000000 -8.654194 -25.156958 12.231895 1.461407 -0.000001 -0.000002 -13.864100 2352.682811 -172.105932 219.935356 -3.155707 -0.765002 6.687801 47.746666 14.034201 -0.234969 -3.592898 -0.000001 -0.000002 28.663500 36.528822 -15.901541 -0.000005 -0.000004 -10.352395 -120.099109 -126.428086 -130.595662 0.000002 -0.000000 -12.750301 -24.286764 -4.771455 -42.959168 2.460600 -0.518098 -2.735500 101.720341 -34.624336 84.933464 -0.000006 -0.000002 -17.005898 -309.553626 140.354814 -102.068817 -0.000005 0.000006 -19.194405 372.081658 9.903998 40.797102 -3.115497 -0.679602 -2.320302 -118.895152 -25.474599 -101.632935 -0.000001 -0.000010 -17.680393 0.644090 207.369147 -319.971632 -0.000000 0.000000 -16.993792 362.272469 47.011792 -158.040291
-31.002903 8.502502 16.357498 2264.150883 19.245018 -23.021713 -0.201601 0.334097 6.453197 22.731324 8.279960 5.889327 -0.000000 0.000005 3.567998 -3.181010 -8.991668 -1.519905 -0.000002 -0.000001 8.296391 -13.487012 -28.086295 19.656286 0.000000 0.000002 2.173907 -1.036912 -5.645592 -11.504491 1.927602 0.221404 6.048999 11.280838 -12.067702 -12.013211 4.959703 -0.000002 0.000001 205.891176 146.778580 82.529989 0.000003 -0.000001 -8.654200 -23.799770 12.265105 1.522353 -0.000006 0.000000 -13.864103 2351.193939 -172.108965 219.610253 -3.155704 -0.765000 6.687800 47.800399 14.085519 -1.813549 -3.592898 0.000003 0.000003 27.498818 37.254642 -14.069630 -0.000007 -0.000005 -10.352394 -119.956563 -126.445079 -130.592930 0.000002 -0.000005 -12.750305 -24.123192 -4.606989 -42.870246 2.460598 -0.518104 -2.735498 101.611864 -34.636743 84.863769 -0.000004 0.000005 -17.005898 -309.454862 140.503712 -102.164979 -0.000004 0.000005 -19.194399 372.240802 10.112917 40.828692 -3.115492 -0.679602 -2.320302 -118.919618 -25.540601 -101.523720 0.000001 -0.000013 -17.680397 0.521904 207.384023 -319.975101 0.000002 0.000001 -16.993793 362.301347 46.988823 -157.613541
-30.998106 8.474401 16.368605 2264.227599 19.163101 -23.086495 -0.201600 0.334102 6.453205 22.605163 8.359941 5.998086 -0.000000 0.000005 3.567997 -3.137606 -9.018163 -1.514718 -0.000005 -0.000002 8.296398 -13.617087 -28.013871 19.640397 -0.000001 0.000001 2.173899 -0.930976 -5.420842 -11.509189 1.927598 0.221408 6.049000 11.123127 -11.934592 -11.883515 4.959702 -0.000002 -0.000000 206.113020 146.959798 82.225956 0.000002 -0.000000 -8.654202 -22.963871 12.193525 1.531603 -0.000006 -0.000001 -13.864098 2350.254324 -172.143020 219.409855 -3.155705 -0.764997 6.687802 47.845752 14.093883 -2.210778 -3.592896 -0.000002 0.000007 27.102735 37.425953 -13.532823 -0.000000 -0.000008 -10.352392 -119.920418 -126.435408 -130.704904 0.000002 -0.000001 -12.750306 -24.020239 -4.512066 -42.789943 2.460597 -0.518106 -2.735497 101.484153 -34.626409 84.790542 -0.000004 -0.000002 -17.005898 -309.393144 140.608105 -102.286604 -0.000005 0.000005 -19.194399 372.328529 10.296066 40.981132 -3.115498 -0.679596 -2.320302 -118.959943 -25.578413 -101.413413 -0.000002 -0.000005 -17.680401 0.466234 207.378026 -319.965485 -0.000000 0.000001 -16.993795 362.341044 47.037962 -157.410097
-30.994602 8.446404 16.380497 2264.274591 19.094962 -23.151401 -0.201599 0.334093 6.453202 22.506513 8.454786 6.105325 -0.000002 -0.000002 3.568004 -3.108575 -9.049219 -1.513087 -0.000008 -0.000008 8.296394 -13.716278 -27.964394 19.626636 -0.000004 0.000001 2.173907 -0.919627 -5.363763 -11.443388 1.927596 0.221399 6.048999 11.102154 -11.895247 -11.824190 4.959700 -0.000001 0.000001 206.128620 147.065161 82.132069 -0.000000 -0.000003 -8.654202 -22.877864 12.155309 1.498127 0.000002 0.000000 -13.864104 2350.062204 -172.206226 219.325707 -3.155710 -0.765004 6.687804 47.747137 14.018049 -2.391973 -3.592897 0.000000 0.000002 27.021709 37.529540 -13.257430 0.000003 -0.000004 -10.352395 -120.003118 -126.429383 -130.912323 -0.000003 -0.000001 -12.750304 -24.043731 -4.440710 -42.684062 2.460600 -0.518106 -2.735502 101.362910 -34.622837 84.720048 0.000000 -0.000003 -17.005896 -309.352709 140.642365 -102.420305 -0.000001 0.000002 -19.194399 372.382679 10.470484 41.122124 -3.115499 -0.679610 -2.320301 -118.962593 -25.616141 -101.306424 0.000001 -0.000007 -17.680401 0.447802 207.347946 -319.951414 -0.000002 0.000002 -16.993788 362.287276 47.029110 -157.207486
-30.993202 8.419407 16.391794 2264.305627 19.051737 -23.225642 -0.201602 0.334099 6.453208 22.415894 8.522438 6.202942 -0.000001 0.000005 3.568001 -3.094830 -9.061404 -1.512806 -0.000004 -0.000007 8.296395 -13.741832 -27.924154 19.653857 0.000002 0.000002 2.173897 -0.911270 -5.374516 -11.438498 1.927601 0.221401 6.049002 11.046144 -11.883799 -11.778064 4.959707 0.000001 0.000003 206.269527 147.124638 82.010116 0.000000 -0.000001 -8.654202 -22.915129 12.074020 1.467670 0.000000 -0.000001 -13.864098 2350.039036 -172.230733 219.318276 -3.155708 -0.765001 6.687798 47.582919 13.918332 -2.311067 -3.592896 0.000001 0.000004 27.129120 37.509586 -13.218900 -0.000005 -0.000002 -10.352397 -120.131307 -126.424124 -131.204792 -0.000002 0.000001 -12.750301 -24.140720 -4.382336 -42.594945 2.460598 -0.518099 -2.735495 101.246961 -34.624408 84.677625 -0.000002 0.000002 -17.005905 -309.340579 140.586617 -102.582010 -0.000007 0.000004 -19.194401 372.377378 10.616039 41.316047 -3.115497 -0.679598 -2.320294 -118.950231 -25.628012 -101.232201 0.000000 -0.000011 -17.680399 0.473265 207.308904 -319.941251 0.000003 0.000004 -16.993793 362.312002 47.073691 -157.088094
